<svg version="1.0" xmlns="http://www.w3.org/2000/svg" width="500.000000pt" height="500.000000pt" viewBox="0 0 500.000000 500.000000" preserveAspectRatio="xMidYMid meet">
  <g transform="translate(0.000000,500.000000) scale(0.100000,-0.100000)" fill="#111827" stroke="none">
    <path d="M2315 4094 c-113 -17 -258 -57 -339 -93 -55 -26 -70 -61 -39 -93 20 -19 20 -19 139 21 110 37 180 52 292 65 l42 4 0 -53 c0 -34 -5 -57 -15 -65 -18 -15 -20 -54 -2 -67 6 -6 71 -15 142 -21 305 -27 537 -138 738 -352 121 -129 200 -298 228 -489 11 -76 10 -120 -7 -271 -6 -54 -2 -66 106 -330 120 -295 123 -310 70 -337 -15 -8 -66 -13 -132 -13 l-108 0 0 -130 0 -130 -68 0 c-66 0 -69 -1 -107 -40 -21 -22 -35 -41 -30 -42 6 -1 39 -2 75 -2 62 -1 65 -2 68 -27 2 -20 -5 -33 -30 -53 -18 -14 -39 -31 -46 -37 -9 -7 -12 -43 -11 -129 2 -131 -8 -162 -64 -204 -61 -45 -237 -27 -447 46 -89 31 -318 127 -382 159 -21 11 -38 15 -38 11 0 -16 56 -86 105 -131 l48 -44 -38 -96 c-20 -53 -48 -129 -62 -169 -23 -68 -24 -74 -9 -97 22 -33 60 -33 82 1 9 14 41 87 70 162 34 90 57 136 66 135 7 -2 60 -19 118 -39 293 -100 473 -104 584 -12 63 52 86 114 86 236 l0 104 35 41 c35 41 55 90 55 138 0 14 11 36 25 49 21 20 25 33 27 104 l3 81 80 5 c91 6 137 27 172 80 42 61 34 105 -68 358 -146 365 -133 317 -118 422 21 146 -11 343 -81 497 -17 36 -30 71 -30 78 0 7 20 20 45 29 95 37 235 167 235 218 0 14 -16 26 -57 44 -97 42 -110 48 -353 189 -384 221 -569 283 -865 290 -88 2 -173 1 -190 -1z m356 -120 c162 -30 362 -103 498 -183 263 -153 362 -209 400 -226 l44 -19 -29 -13 c-77 -33 -150 -10 -336 103 -165 100 -279 159 -373 191 -78 26 -268 63 -327 63 l-38 0 0 50 0 50 39 0 c21 0 76 -7 122 -16z"/>
    <path d="M1710 3848 c-197 -129 -373 -365 -450 -606 -50 -154 -63 -255 -57 -437 7 -202 33 -308 117 -480 61 -124 107 -192 210 -306 56 -63 60 -71 60 -116 0 -85 -27 -231 -60 -327 -36 -105 -35 -142 4 -152 13 -3 33 -1 43 5 28 15 80 165 105 306 12 66 23 122 25 124 1 2 21 -8 45 -22 91 -53 117 -66 206 -101 133 -53 245 -76 384 -76 123 0 148 8 148 50 0 36 -27 50 -98 50 -278 0 -551 118 -763 330 -146 145 -238 302 -284 485 -38 151 -40 145 54 145 44 0 83 -4 86 -10 11 -18 70 -11 93 10 31 29 32 62 5 92 -13 15 -14 28 -4 97 14 96 59 234 101 307 16 30 30 61 30 69 0 8 -16 23 -35 32 -19 9 -35 22 -35 28 0 40 178 225 279 290 69 45 220 114 249 115 21 0 36 44 23 69 -16 30 -47 27 -152 -16 -178 -71 -348 -206 -457 -362 -63 -91 -67 -120 -17 -147 19 -10 35 -22 35 -27 0 -4 -11 -30 -25 -58 l-26 -50 -48 7 -48 6 -17 -48 c-28 -83 -20 -104 41 -104 23 0 25 -3 19 -32 -3 -18 -9 -66 -12 -105 l-7 -73 -83 0 -84 0 0 90 c0 325 169 647 452 858 90 67 102 86 70 115 -28 26 -51 21 -122 -25z"/>
    <path d="M2290 3675 c-134 -30 -268 -86 -322 -133 -24 -21 -23 -59 3 -72 17 -9 36 -4 112 34 103 51 220 86 284 86 l43 0 0 -45 c0 -44 -1 -45 -33 -45 -44 0 -70 -20 -65 -51 3 -21 9 -24 51 -27 l47 -3 0 -48 0 -48 -61 -12 c-54 -11 -99 -38 -99 -59 0 -5 6 -16 14 -27 12 -16 18 -17 59 -7 82 21 87 19 87 -38 0 -44 -3 -50 -21 -50 -11 0 -45 -12 -75 -26 -48 -23 -55 -29 -52 -51 4 -38 30 -50 70 -34 74 29 78 28 78 -22 0 -51 15 -93 37 -101 22 -9 53 12 54 37 1 12 2 40 3 62 1 37 3 40 28 38 15 -1 43 -9 62 -18 32 -15 36 -15 61 1 40 26 30 54 -34 87 -30 15 -67 27 -83 27 -26 0 -28 3 -29 38 -1 34 1 65 4 69 1 1 25 -3 52 -8 173 -32 342 -204 362 -369 l6 -50 -86 0 c-47 0 -97 -4 -110 -9 -34 -13 -40 -38 -17 -61 17 -17 34 -20 116 -20 l96 0 -7 -32 c-22 -113 -138 -258 -245 -309 -59 -28 -157 -55 -167 -45 -3 3 -7 40 -9 83 -2 42 -8 81 -13 86 -4 4 -33 12 -62 16 -75 10 -122 35 -173 92 -51 57 -66 101 -42 128 22 24 20 48 -3 61 -19 9 -19 13 -6 56 7 25 19 51 25 59 29 35 -23 102 -56 74 -22 -18 -51 -78 -64 -132 -11 -40 -16 -46 -46 -51 -46 -9 -61 -39 -34 -66 11 -11 31 -20 44 -20 20 0 27 -8 41 -49 21 -64 84 -151 132 -182 46 -30 116 -59 143 -59 17 0 20 -7 20 -50 0 -59 -7 -61 -102 -29 -124 42 -222 128 -280 248 -59 123 -48 295 28 409 38 58 38 81 -1 102 -20 11 -27 11 -40 0 -25 -20 -82 -129 -99 -189 -20 -67 -21 -208 -2 -277 48 -182 197 -332 385 -388 30 -9 67 -16 83 -16 27 0 28 -2 28 -45 l0 -45 -38 0 c-20 0 -70 9 -109 20 -68 19 -104 35 -180 82 -36 21 -67 13 -78 -21 -9 -29 2 -45 58 -79 98 -59 197 -84 342 -89 96 -3 137 -1 155 9 47 26 33 78 -21 78 -27 0 -29 2 -29 43 l0 42 68 13 c207 40 393 217 435 417 l11 55 128 0 c148 0 139 10 109 -116 -28 -115 -55 -178 -117 -271 -119 -180 -319 -313 -536 -358 -81 -18 -259 -20 -344 -4 -77 13 -165 44 -236 81 -87 46 -217 155 -273 230 -55 74 -86 86 -120 47 -19 -19 -19 -21 0 -55 32 -60 176 -199 266 -258 171 -110 306 -149 519 -149 124 0 159 4 244 26 186 50 308 119 443 251 132 129 222 300 259 490 l17 86 32 0 c45 0 69 21 61 53 -5 21 -14 27 -49 32 l-43 7 -11 96 c-26 211 -118 392 -275 536 -109 102 -231 169 -388 213 -110 32 -321 40 -420 18z m389 -106 c183 -46 375 -185 484 -349 66 -100 117 -259 117 -366 l0 -45 -127 3 -128 3 -7 56 c-27 215 -215 406 -442 448 -33 6 -61 13 -63 15 -6 6 -11 218 -6 243 5 20 9 22 52 16 25 -3 79 -14 120 -24z"/>
    <path d="M2587 3473 c-12 -12 -7 -50 8 -63 17 -14 51 -5 59 16 13 35 -41 73 -67 47z"/>
    <path d="M2748 3409 c-35 -20 -11 -75 29 -67 22 4 29 43 13 64 -14 16 -19 17 -42 3z"/>
    <path d="M2861 3331 c-13 -24 8 -55 34 -50 23 5 40 32 32 53 -9 22 -54 20 -66 -3z"/>
    <path d="M3001 3216 c-18 -22 3 -56 34 -56 18 0 26 7 31 24 3 14 3 30 -1 35 -9 16 -51 13 -64 -3z"/>
    <path d="M3076 3071 c-29 -32 5 -72 45 -51 23 13 24 33 3 54 -20 21 -27 20 -48 -3z"/>
    <path d="M3133 2934 c-21 -9 -15 -52 8 -64 27 -15 51 5 47 39 -3 26 -27 36 -55 25z"/>
    <path d="M1857 3453 c-13 -12 -7 -52 9 -61 38 -21 80 21 54 53 -13 15 -51 20 -63 8z"/>
    <path d="M2125 3417 c-122 -59 -168 -118 -115 -147 17 -9 32 -3 94 37 40 26 87 56 105 65 32 18 40 45 19 66 -17 17 -26 16 -103 -21z"/>
    <path d="M1838 3217 c-38 -49 -94 -165 -119 -247 -33 -107 -33 -275 0 -380 29 -94 68 -173 117 -239 44 -59 75 -72 104 -46 28 26 25 45 -15 90 -44 50 -100 162 -120 240 -19 76 -19 214 0 290 20 77 66 176 105 225 35 44 37 60 12 83 -28 26 -57 20 -84 -16z"/>
    <path d="M2114 3196 c-10 -27 1 -51 25 -54 31 -5 45 11 37 42 -5 19 -13 26 -32 26 -13 0 -27 -6 -30 -14z"/>
    <path d="M2713 2966 l-27 -24 19 -43 c26 -60 34 -69 60 -69 33 0 48 23 40 62 -8 33 -45 98 -57 98 -4 0 -19 -11 -35 -24z"/>
    <path d="M2429 2849 c-77 -28 -50 -159 31 -159 82 0 112 118 39 155 -32 17 -34 17 -70 4z"/>
    <path d="M2716 2664 c-9 -8 -16 -19 -16 -24 0 -9 28 -40 36 -40 17 0 44 23 44 38 0 38 -37 53 -64 26z"/>
    <path d="M3096 2615 c-11 -29 -7 -44 15 -56 18 -9 25 -7 43 10 16 17 18 25 10 39 -15 23 -60 28 -68 7z"/>
    <path d="M1538 2559 c-36 -20 -12 -89 31 -89 25 0 41 20 41 50 0 44 -33 62 -72 39z"/>
    <path d="M2594 2540 c-27 -11 -37 -36 -24 -61 14 -25 45 -24 70 1 24 24 25 34 4 54 -17 18 -20 18 -50 6z"/>
    <path d="M3020 2445 c-15 -18 -10 -45 12 -59 13 -8 22 -6 37 8 25 23 26 30 5 50 -19 20 -38 20 -54 1z"/>
    <path d="M2884 2285 c-8 -32 6 -48 37 -43 19 2 24 9 24 33 0 25 -4 31 -27 33 -22 3 -29 -2 -34 -23z"/>
    <path d="M2723 2192 c-54 -27 -66 -49 -39 -71 11 -10 25 -8 65 9 60 26 75 42 66 70 -8 26 -28 25 -92 -8z"/>
    <path d="M3066 1974 c-19 -18 -19 -20 -6 -45 20 -36 70 -17 70 27 0 34 -38 45 -64 18z"/>
    <path d="M2930 1870 c0 -13 7 -20 20 -20 13 0 20 7 20 20 0 13 -7 20 -20 20 -13 0 -20 -7 -20 -20z"/>
    <path d="M2764 1815 c-16 -24 -16 -27 1 -45 10 -11 23 -20 30 -20 7 0 20 9 30 20 17 18 17 21 1 45 -9 14 -23 25 -31 25 -8 0 -22 -11 -31 -25z"/>
    <path d="M2622 1763 c2 -10 10 -18 18 -18 22 0 18 29 -3 33 -14 3 -18 -1 -15 -15z"/>
  </g>
</svg>
